<svg fill="none" height="24" viewBox="0 0 24 24" width="24" xmlns="http://www.w3.org/2000/svg"><g clip-rule="evenodd" fill="#000" fill-rule="evenodd"><path d="m12 4c-4.41828 0-8 3.58172-8 8 0 1.6921.52425 3.2588 1.41916 4.5503.29617.4275.36757.9981.13297 1.5029l-.90484 1.9468h7.35271c4.4183 0 8-3.5817 8-8 0-4.41828-3.5817-8-8-8zm-10 8c0-5.52285 4.47715-10 10-10 5.5228 0 10 4.47715 10 10 0 5.5228-4.4772 10-10 10h-8.13841c-1.13423 0-1.85173-1.2067-1.32753-2.1984l1.08769-2.3403c-1.02554-1.5704-1.62175-3.4476-1.62175-5.4613z"/><path d="m11.2929 8.29289c.3905-.39052 1.0237-.39052 1.4142 0l3 3.00001c.1875.1875.2929.4419.2929.7071s-.1054.5196-.2929.7071l-3 3c-.3905.3905-1.0237.3905-1.4142 0s-.3905-1.0237 0-1.4142l1.2929-1.2929h-3.5858c-.55228 0-1-.4477-1-1s.44772-1 1-1h3.5858l-1.2929-1.29289c-.3905-.39053-.3905-1.02369 0-1.41422z"/></g></svg>